<?xml version="1.0" encoding="UTF-8"?>
<svg xmlns="http://www.w3.org/2000/svg"
     viewBox="140 160 750 750"
     preserveAspectRatio="xMinYMid meet">



<path d="M0 0 C8.39902639 7.80083109 16.31232363 15.97396186 23.96337891 24.5065918 C24.47320313 25.07168457 24.98302734 25.63677734 25.50830078 26.21899414 C43.84679334 46.66200161 58.66753437 69.56479006 71.96337891 93.5065918 C72.37475098 94.23604004 72.78612305 94.96548828 73.20996094 95.71704102 C99.01785531 141.56043878 114.08020916 197.8657069 114.13134766 250.5300293 C114.13467606 251.75203033 114.13800446 252.97403137 114.14143372 254.23306274 C114.14647132 256.80974963 114.14884303 259.38644296 114.14868164 261.96313477 C114.15085323 265.83580772 114.16900242 269.70818839 114.18798828 273.58081055 C114.23022487 291.93260807 113.39704963 309.9690521 110.21337891 328.0690918 C109.95415649 329.55094971 109.95415649 329.55094971 109.68969727 331.06274414 C109.12723976 334.21319478 108.5453493 337.35969454 107.96337891 340.5065918 C107.6861499 342.08077881 107.6861499 342.08077881 107.40332031 343.68676758 C96.7542752 403.33404396 68.06633456 459.79037731 29.96337891 506.5065918 C29.52703125 507.04203613 29.09068359 507.57748047 28.64111328 508.12915039 C15.96761779 523.586121 2.21426762 538.56481651 -13.03662109 551.5065918 C-13.93380859 552.29291992 -14.83099609 553.07924805 -15.75537109 553.8894043 C-60.28824361 592.66421397 -114.16126362 618.66692684 -171.03662109 633.5065918 C-171.99874512 633.75779785 -172.96086914 634.00900391 -173.95214844 634.26782227 C-197.23648054 640.22005263 -221.40183936 643.59525315 -245.43505859 643.74487305 C-246.70467438 643.75294479 -247.97429016 643.76101654 -249.28237915 643.76933289 C-251.96677209 643.78310411 -254.65104544 643.79413558 -257.33544922 643.80175781 C-260.02110058 643.81050168 -262.70548436 643.83345924 -265.39111328 643.86328125 C-324.48734914 644.51706532 -382.83397302 628.987584 -435.03662109 601.5065918 C-436.14191162 600.93400635 -436.14191162 600.93400635 -437.26953125 600.34985352 C-456.20271721 590.49955951 -474.32340725 578.79440143 -491.03662109 565.5065918 C-491.63845215 565.03189453 -492.2402832 564.55719727 -492.86035156 564.06811523 C-504.90156814 554.54770439 -516.29916629 544.48563933 -527.03662109 533.5065918 C-529.54538019 530.98537198 -532.06519676 528.47879547 -534.61474609 525.9987793 C-540.90874057 519.83360927 -546.55782499 513.41858291 -552.03662109 506.5065918 C-552.94587597 505.40840951 -553.85744431 504.31213968 -554.77099609 503.2175293 C-563.34846574 492.85668232 -570.79099779 481.82915866 -578.03662109 470.5065918 C-578.46571777 469.83660156 -578.89481445 469.16661133 -579.33691406 468.47631836 C-627.12929642 393.09059826 -644.62620211 302.58236305 -633.03662109 214.5065918 C-632.90271973 213.47147461 -632.76881836 212.43635742 -632.63085938 211.36987305 C-621.91343881 131.86609871 -582.54536749 61.28858083 -526.56729126 4.86303711 C-525.52271673 3.80975862 -524.47951429 2.75511722 -523.43783569 1.69897461 C-516.64097345 -5.18100238 -509.60608858 -11.45437113 -502.03662109 -17.4934082 C-500.91111091 -18.45136622 -499.79133792 -19.41616916 -498.68115234 -20.3918457 C-490.57903726 -27.47700565 -482.05166993 -33.62309808 -473.03662109 -39.4934082 C-471.88492432 -40.24726807 -471.88492432 -40.24726807 -470.70996094 -41.01635742 C-421.31272122 -73.11106126 -365.43018947 -93.1204829 -307.03662109 -100.4934082 C-306.10333984 -100.61200195 -305.17005859 -100.7305957 -304.20849609 -100.8527832 C-212.10212017 -111.90554831 -114.11765573 -86.73120712 0 0 Z " fill="#36454F" transform="translate(774.03662109375,237.493408203125)"/>
<path d="M0 0 C-0.58082813 10.84318601 -2.74980284 21.46341847 -4.6875 32.125 C-5.05091738 34.14364903 -5.41395036 36.16236729 -5.77661133 38.18115234 C-6.67912769 43.19824312 -7.58722203 48.21430337 -8.49755859 53.22998047 C-9.09766438 56.53843542 -9.6951899 59.84735243 -10.29251099 63.15631104 C-13.47497497 80.78071443 -16.72756849 98.39210265 -20 116 C-20.75070289 120.04153652 -21.50068055 124.08320675 -22.25 128.125 C-22.44891846 129.1977417 -22.64783691 130.2704834 -22.8527832 131.37573242 C-24.24336612 138.88571944 -25.62384039 146.39751491 -27 153.91015625 C-27.74986338 158.00262921 -28.49986974 162.09507595 -29.25 166.1875 C-29.44102295 167.22975739 -29.6320459 168.27201477 -29.82885742 169.34585571 C-33.13211732 187.36013309 -36.49285609 205.36321314 -39.89208984 223.35961914 C-41.5032735 231.90439252 -43.10082374 240.44910516 -44.5703125 249.01953125 C-44.74348999 250.02283226 -44.74348999 250.02283226 -44.92016602 251.04640198 C-45.43190454 254.01640306 -45.93385062 256.98735547 -46.41699219 259.9621582 C-47.93478997 268.88608643 -51.28215962 274.66086967 -56.8125 281.6875 C-57.98718497 283.20065352 -59.16030687 284.71502151 -60.33203125 286.23046875 C-61.24009521 287.40488525 -61.24009521 287.40488525 -62.16650391 288.60302734 C-65.16796003 292.52690167 -68.08297657 296.51318354 -71 300.5 C-76.59298703 308.13047675 -82.29872588 315.66599736 -88.0625 323.16796875 C-90.50251699 326.34481485 -92.91555952 329.54046038 -95.3125 332.75 C-98.71674212 337.30769412 -102.16075152 341.83336902 -105.6159668 346.35253906 C-111.47756326 354.02062636 -117.29581088 361.71396612 -123 369.5 C-131.19062915 380.67476664 -139.61912031 391.66516672 -148.04101562 402.66601562 C-155.67726212 412.64511818 -163.25575264 422.65714977 -170.68066406 432.79467773 C-177.65562773 442.29571474 -184.82969506 451.64602405 -192 461 C-211.68660767 442.41115856 -225.1994767 415.46268058 -236 391 C-236.4940332 389.91162842 -236.4940332 389.91162842 -236.99804688 388.80126953 C-242.02268045 377.70135047 -245.35956232 366.35350428 -248.34765625 354.55517578 C-248.9288172 352.27881705 -249.53539912 350.01187385 -250.15625 347.74609375 C-252.77009129 338.05063629 -254.35437736 328.30959466 -255.67529297 318.36523438 C-255.9621839 316.27546041 -256.29230234 314.1917197 -256.62890625 312.109375 C-267.09574 240.96418335 -243.02709842 167.5864005 -202 110 C-197.11488639 103.43739958 -191.62439531 97.37671562 -186.1171875 91.3359375 C-184.20919797 89.23081252 -182.34952931 87.09386366 -180.5 84.9375 C-174.20725827 77.72918615 -167.32964979 71.14105793 -160 65 C-159.46552246 64.54641113 -158.93104492 64.09282227 -158.38037109 63.62548828 C-127.52065534 37.52112208 -90.36358391 16.8301362 -51 7 C-49.72261963 6.67757324 -49.72261963 6.67757324 -48.41943359 6.34863281 C-32.3198096 2.34301208 -16.65297458 -0.46603138 0 0 Z " fill="#FE9120" transform="translate(489,232)"/>
<path d="M0 0 C7.03373185 0.50557601 13.63050625 1.67711833 20.4375 3.5 C21.42049072 3.76208252 22.40348145 4.02416504 23.41625977 4.29418945 C44.4487594 10.03572063 64.46130389 17.31993897 84 27 C84.91507324 27.45133301 85.83014648 27.90266602 86.77294922 28.36767578 C109.51832638 39.68530562 132.15646177 53.30523666 150.69921875 70.83984375 C152.66807807 72.68836532 154.67446728 74.45532651 156.71875 76.21875 C168.53607549 86.52648798 179.47143916 97.75901032 188.78515625 110.37939453 C190.39010086 112.5203958 192.07670118 114.59423937 193.75244141 116.67993164 C200.31808769 124.942881 205.70961189 133.88450978 211 143 C211.35271973 143.59941406 211.70543945 144.19882812 212.06884766 144.81640625 C232.97780197 180.66626924 248 226.20852202 248 268 C149.99 268 51.98 268 -49 268 C-47.87465025 256.74650252 -47.87465025 256.74650252 -46.90625 251.4921875 C-46.68541748 250.2844165 -46.46458496 249.07664551 -46.23706055 247.83227539 C-45.99146766 246.5131661 -45.74577711 245.19407498 -45.5 243.875 C-45.23645715 242.44332912 -44.97320222 241.01160521 -44.71020508 239.57983398 C-43.13413018 231.0218946 -41.52663576 222.46983068 -39.91796875 213.91796875 C-39.647817 212.48177689 -39.647817 212.48177689 -39.37220764 211.01657104 C-37.82282546 202.78081946 -37.82282546 202.78081946 -37.11209106 199.00817871 C-33.94363948 182.18149413 -30.88645895 165.33664131 -27.87597656 148.48104858 C-25.08611435 132.87221379 -22.17580309 117.29032946 -19.17608643 101.72055054 C-17.08873794 90.87743402 -15.11157599 80.03158039 -13.36157227 69.12792969 C-12.10907688 61.41029716 -10.5784006 53.76265845 -9.00415039 46.10498047 C-6.76787961 35.10791103 -4.86134685 24.05483661 -2.96728516 12.99462891 C-2.84360565 12.27912369 -2.71992615 11.56361847 -2.59249878 10.82643127 C-2.25417955 8.86851862 -1.91945816 6.90998526 -1.58496094 4.95141602 C-1 2 -1 2 0 0 Z " fill="#FE9120" transform="translate(558,209)"/>
<path d="M0 0 C4.83763525 2.32923179 7.63619663 5.18147775 10 10 C10.91002194 18.60343874 8.03633558 25.96992302 5.2421875 33.96875 C4.74124934 35.43504165 4.24153552 36.90175208 3.7429657 38.36885071 C2.41134694 42.27646371 1.0632077 46.17818427 -0.28821945 50.07898331 C-1.69182507 54.13996756 -3.07969355 58.20632139 -4.46899414 62.2722168 C-6.65674025 68.6691018 -8.85253598 75.06315486 -11.05615234 81.45458984 C-13.42161691 88.31555123 -15.77480993 95.18056406 -18.11328125 102.05078125 C-18.40241898 102.90003677 -18.6915567 103.7492923 -18.98945618 104.62428284 C-19.54026902 106.24213779 -20.09105641 107.8600014 -20.64181519 109.47787476 C-21.97344659 113.38502522 -23.31128902 117.29004753 -24.6484375 121.1953125 C-27.89787459 130.68917181 -31.12728004 140.18981148 -34.35473633 149.69116211 C-35.81055793 153.9766337 -37.26878271 158.26127482 -38.72924805 162.54516602 C-41.80485281 171.57044782 -44.87528261 180.59668947 -47.87608337 189.64717102 C-49.05208094 193.19097703 -50.23750073 196.73159345 -51.42404175 200.2718811 C-51.96760362 201.90272738 -52.50641344 203.5351665 -53.04006958 205.16928101 C-53.76994093 207.40350658 -54.51592433 209.63173938 -55.265625 211.859375 C-55.88099121 213.72287598 -55.88099121 213.72287598 -56.50878906 215.62402344 C-58.46407194 220.05061998 -60.92299901 223.60186314 -65.0078125 226.3515625 C-68.96465684 227.63947654 -72.90412732 227.53058698 -77 227 C-82.13308791 224.38679161 -85.1797908 221.46062759 -87 216 C-87.83560996 208.79266632 -85.97668526 202.77217595 -83.58984375 196.0390625 C-83.23105637 194.99220779 -82.87226898 193.94535309 -82.50260925 192.86677551 C-81.32729852 189.44818281 -80.13257769 186.03672722 -78.9375 182.625 C-78.11258004 180.2374712 -77.28886293 177.84952648 -76.46630859 175.46118164 C-73.99555972 168.30112792 -71.49968871 161.14999138 -69 154 C-68.28935578 151.96312141 -67.57889628 149.92617836 -66.86865234 147.88916016 C-64.33941735 140.63710937 -61.80823161 133.38575458 -59.26757812 126.13769531 C-54.89109289 113.63951817 -50.66018074 101.09797941 -46.49780273 88.52709961 C-42.62304641 76.83005375 -38.67110466 65.16040837 -34.6875 53.5 C-34.40244598 52.66466736 -34.11739197 51.82933472 -33.82369995 50.96868896 C-32.17372756 46.13503278 -30.51707398 41.30373778 -28.85247803 36.47509766 C-28.26458608 34.76820323 -27.67812451 33.06081571 -27.09283447 31.35302734 C-26.17662488 28.6818511 -25.25491281 26.01262748 -24.33203125 23.34375 C-24.05751633 22.54054321 -23.7830014 21.73733643 -23.50016785 20.90979004 C-19.04273179 8.07874256 -15.42074929 -1.68442031 0 0 Z " fill="#FCFCFC" transform="translate(612,534)"/>
<path d="M0 0 C6.87622727 5.89390909 6.87622727 5.89390909 7.60546875 10.53515625 C7.90684113 21.19799795 2.19920962 26.42827894 -4.8125 33.875 C-8.3464619 37.52247573 -11.93400945 41.114395 -15.53515625 44.6953125 C-16.53142513 45.68970996 -17.52746877 46.68433313 -18.52330017 47.6791687 C-21.11023085 50.26233113 -23.70015258 52.84247319 -26.29077148 55.42193604 C-28.94766194 58.068488 -31.6016263 60.71797092 -34.25585938 63.3671875 C-39.4385931 68.53928467 -44.62449932 73.70818542 -49.8125 78.875 C-45.02135244 84.70155264 -39.77951572 90.001557 -34.41097641 95.29055786 C-32.83516449 96.84406984 -31.26358541 98.40175173 -29.69314575 99.96069336 C-25.23249846 104.38800061 -20.767626 108.81097761 -16.29248047 113.22363281 C-13.54284183 115.93546685 -10.80070239 118.65469666 -8.06311417 121.37869263 C-7.02535794 122.40844283 -5.98484153 123.43541968 -4.94143295 124.45944214 C7.6015312 136.77321839 7.6015312 136.77321839 8.75 144.8125 C8.43311424 150.62961724 5.19024333 154.9900651 1.0625 158.875 C-3.76753225 160.55501122 -7.7815273 160.87999383 -12.8125 159.875 C-22.27409786 154.0720273 -30.16358012 144.79868687 -37.9296875 136.96362305 C-40.06714882 134.80781127 -42.21259848 132.66020378 -44.359375 130.51367188 C-45.74526527 129.1228676 -47.13069792 127.73160714 -48.515625 126.33984375 C-49.45961151 125.394188 -49.45961151 125.394188 -50.42266846 124.4294281 C-54.15718653 120.6555047 -57.68691253 116.75740478 -61.15969849 112.74226379 C-63.48016327 110.12070286 -65.93893575 107.70698251 -68.45703125 105.2734375 C-69.47373665 104.27908465 -70.49000041 103.28428008 -71.50585938 102.2890625 C-73.07259013 100.75955855 -74.64218547 99.23345395 -76.21948242 97.71484375 C-77.76624051 96.22270518 -79.29986949 94.71804109 -80.83203125 93.2109375 C-81.74057861 92.32970215 -82.64912598 91.4484668 -83.58520508 90.54052734 C-86.77836851 86.7190916 -88.25727438 82.61802871 -88 77.625 C-87.02595659 71.12055457 -82.32194959 67.27872495 -77.8125 62.875 C-76.65621107 61.72139465 -75.50133882 60.56636813 -74.34765625 59.41015625 C-72.55611294 57.61479149 -70.76214091 55.82313026 -68.95043945 54.0480957 C-66.06578943 51.20961987 -63.30611224 48.32753608 -60.67895508 45.24804688 C-56.48968086 40.4372225 -52.02583637 35.9264367 -47.51953125 31.4140625 C-46.65108078 30.54228363 -45.78263031 29.67050476 -44.88786316 28.77230835 C-43.06465414 26.94406638 -41.24011463 25.11715036 -39.41430664 23.29150391 C-36.61772226 20.49271653 -33.82925219 17.68600708 -31.04101562 14.87890625 C-29.26351028 13.09846956 -27.48553206 11.31850481 -25.70703125 9.5390625 C-24.45851128 8.27976425 -24.45851128 8.27976425 -23.18476868 6.99502563 C-22.40683456 6.22016815 -21.62890045 5.44531067 -20.82739258 4.64697266 C-20.14679276 3.96494781 -19.46619293 3.28292297 -18.76496887 2.58023071 C-13.41000726 -2.09664027 -6.53637222 -2.61454889 0 0 Z " fill="#FCFCFC" transform="translate(487.8125,570.125)"/>
<path d="M0 0 C0.91007813 -0.06058594 1.82015625 -0.12117187 2.7578125 -0.18359375 C9.92470065 1.24439524 15.60120506 7.86901983 20.6105957 12.91430664 C21.54146248 13.83991646 21.54146248 13.83991646 22.49113464 14.78422546 C24.51603482 16.80041019 26.53363347 18.82371773 28.55078125 20.84765625 C29.96676458 22.26229052 31.38304454 23.67662794 32.79960632 25.09068298 C35.75548779 28.04362744 38.70775065 31.00012974 41.6574707 33.95922852 C45.43457215 37.74775502 49.22062461 41.52718906 53.00941181 45.3040247 C55.93068036 48.21806298 58.84716479 51.13685186 61.76222801 54.05709648 C63.15659071 55.45279082 64.55243365 56.84700798 65.94979286 58.23970222 C67.90020604 60.18502764 69.84407916 62.13666412 71.78637695 64.09008789 C72.36147003 64.66113251 72.93656311 65.23217712 73.52908325 65.82052612 C77.79639299 70.13315228 81.30234132 73.95316648 81.3125 80.3125 C81.33183594 81.11429688 81.35117187 81.91609375 81.37109375 82.7421875 C80.0885659 89.71025222 75.18892278 94.55714585 70.33398438 99.35083008 C69.68633621 100.00212891 69.03868805 100.65342773 68.37141418 101.32446289 C66.24450289 103.4594318 64.10699606 105.58341935 61.96875 107.70703125 C60.48138162 109.1938806 58.99453225 110.6812493 57.50817871 112.16911316 C54.39931004 115.27789234 51.28535769 118.38145757 48.16748047 121.48120117 C44.1708128 125.45513327 40.18536545 129.44009634 36.20342255 133.42877674 C33.13778095 136.497758 30.06717664 139.56173334 26.99494934 142.62412071 C25.52320744 144.09201402 24.05281092 145.5612575 22.58378601 147.03186989 C20.53275072 149.08327576 18.47534352 151.12806592 16.41601562 153.17114258 C15.81018143 153.77945419 15.20434723 154.38776581 14.58015442 155.01451111 C14.01668808 155.57089264 13.45322174 156.12727417 12.87268066 156.70051575 C12.38748207 157.18366147 11.90228348 157.66680719 11.4023819 158.1645937 C7.29175698 161.59035145 3.53714697 161.86481231 -1.65234375 161.7578125 C-6.24831926 161.16244127 -8.96859885 158.75340476 -11.9375 155.375 C-13.80495595 152.32809819 -14.32238678 149.63292381 -14.4375 146.125 C-14.47488281 145.38636719 -14.51226563 144.64773438 -14.55078125 143.88671875 C-13.44872664 137.5473771 -7.82489952 132.88057642 -3.41796875 128.5703125 C-2.45253899 127.61268509 -2.45253899 127.61268509 -1.46760559 126.63571167 C0.57935926 124.60645169 2.63290035 122.58402713 4.6875 120.5625 C6.73053513 118.54728596 8.77200875 116.530552 10.81047058 114.51071167 C12.0743145 113.2589068 13.34081808 112.00977876 14.61054993 110.76394653 C18.35422917 107.06190617 21.86412204 103.22033458 25.30500793 99.23580933 C27.14614231 97.12692661 29.07107166 95.12734629 31.05859375 93.15625 C31.75791016 92.46015625 32.45722656 91.7640625 33.17773438 91.046875 C33.88220703 90.35078125 34.58667969 89.6546875 35.3125 88.9375 C36.04404297 88.21046875 36.77558594 87.4834375 37.52929688 86.734375 C39.30889824 84.96640501 41.09080918 83.20083622 42.875 81.4375 C37.86600226 75.42826558 32.46558141 69.9609438 26.88476562 64.48632812 C23.69843498 61.33665708 20.60477603 58.17685285 17.703125 54.76171875 C14.49366833 51.033387 11.06770328 47.56818428 7.57421875 44.109375 C7.00768082 43.54834579 6.44114288 42.98731659 5.85743713 42.4092865 C3.49207597 40.07164417 1.12309216 37.73774858 -1.25024414 35.40820312 C-3.00064521 33.68797729 -4.74479215 31.96160188 -6.48828125 30.234375 C-7.29293571 29.44990997 -7.29293571 29.44990997 -8.11384583 28.64959717 C-12.45310271 24.33979275 -14.41649647 21.30693464 -14.6875 15.1875 C-14.61914687 9.52178474 -12.76273798 6.84180372 -8.8515625 2.8984375 C-5.92724627 0.42401608 -3.77147374 0.17334072 0 0 Z " fill="#FDFDFD" transform="translate(667.125,568.5625)"/>
<path d="M0 0 C0.33 0 0.66 0 1 0 C1 4.95 1 9.9 1 15 C97.69 15.33 194.38 15.66 294 16 C294 14.02 294 12.04 294 10 C294.33 10 294.66 10 295 10 C295 12.31 295 14.62 295 17 C196.99 17 98.98 17 -2 17 C-1.42725566 11.2725566 -0.86285479 5.67018863 0 0 Z " fill="#CC832B" transform="translate(511,460)"/>
<path d="M0 0 C0 4.12527351 -1.49125936 5.76504496 -4 9 C-5.93102068 10.54010673 -7.86430538 11.73799864 -10 13 C-10.66 12.67 -11.32 12.34 -12 12 C-8.04 8.04 -4.08 4.08 0 0 Z " fill="#E38E26" transform="translate(320,305)"/>
<path d="M0 0 C0 0.66 0 1.32 0 2 C-2.31 3.32 -4.62 4.64 -7 6 C-7.66 5.34 -8.32 4.68 -9 4 C-2.25 0 -2.25 0 0 0 Z " fill="#EC9325" transform="translate(389,258)"/>
</svg>
